HIERARCHY
ROOT Hips
{
	OFFSET 0.000000 0.000000 0.000000
	CHANNELS 6 Xposition Yposition Zposition Zrotation Yrotation Xrotation 
	JOINT LHipJoint
	{
		OFFSET 0.000000 0.000000 0.000000
		CHANNELS 3 Zrotation Yrotation Xrotation
		JOINT LeftUpLeg
		{
			OFFSET 1.363060 -1.794630 0.839290
			CHANNELS 3 Zrotation Yrotation Xrotation
			JOINT LeftLeg
			{
				OFFSET 2.448110 -6.726130 0.000000
				CHANNELS 3 Zrotation Yrotation Xrotation
				JOINT LeftFoot
				{
					OFFSET 2.562200 -7.039590 0.000000
					CHANNELS 3 Zrotation Yrotation Xrotation
					JOINT LeftToeBase
					{
						OFFSET 0.157640 -0.433110 2.322550
						CHANNELS 3 Zrotation Yrotation Xrotation
						End Site
						{
							OFFSET 0.000000 0.000000 0.000000
						}
					}
				}
			}
		}
	}
	JOINT RHipJoint
	{
		OFFSET 0.000000 0.000000 0.000000
		CHANNELS 3 Zrotation Yrotation Xrotation
		JOINT RightUpLeg
		{
			OFFSET -1.305520 -1.794630 0.839290
			CHANNELS 3 Zrotation Yrotation Xrotation
			JOINT RightLeg
			{
				OFFSET -2.542530 -6.985550 0.000000
				CHANNELS 3 Zrotation Yrotation Xrotation
				JOINT RightFoot
				{
					OFFSET -2.568260 -7.056230 0.000000
					CHANNELS 3 Zrotation Yrotation Xrotation
					JOINT RightToeBase
					{
						OFFSET -0.164730 -0.452590 2.363150
						CHANNELS 3 Zrotation Yrotation Xrotation
						End Site
						{
							OFFSET 0.000000 0.000000 0.000000
						}
					}
				}
			}
		}
	}
	JOINT LowerBack
	{
		OFFSET 0.000000 0.000000 0.000000
		CHANNELS 3 Zrotation Yrotation Xrotation
		JOINT Spine
		{
			OFFSET 0.028270 2.035590 -0.193380
			CHANNELS 3 Zrotation Yrotation Xrotation
			JOINT Spine1
			{
				OFFSET 0.056720 2.048850 -0.042750
				CHANNELS 3 Zrotation Yrotation Xrotation
				JOINT Neck
				{
					OFFSET 0.000000 0.000000 0.000000
					CHANNELS 3 Zrotation Yrotation Xrotation
					JOINT Neck1
					{
						OFFSET -0.054170 1.746240 0.172020
						CHANNELS 3 Zrotation Yrotation Xrotation
						JOINT Head
						{
							OFFSET 0.104070 1.761360 -0.123970
							CHANNELS 3 Zrotation Yrotation Xrotation
							End Site
							{
								OFFSET 0.000000 0.000000 0.000000
							}
						}
					}
				}
				JOINT LeftShoulder
				{
					OFFSET 0.000000 0.000000 0.000000
					CHANNELS 3 Zrotation Yrotation Xrotation
					JOINT LeftArm
					{
						OFFSET 3.362410 1.200890 -0.311210
						CHANNELS 3 Zrotation Yrotation Xrotation
						JOINT LeftForeArm
						{
							OFFSET 4.983000 -0.000000 -0.000000
							CHANNELS 3 Zrotation Yrotation Xrotation
							JOINT LeftHand
							{
								OFFSET 3.483560 -0.000000 -0.000000
								CHANNELS 3 Zrotation Yrotation Xrotation
								JOINT LeftFingerBase
								{
									OFFSET 0.000000 0.000000 0.000000
									CHANNELS 3 Zrotation Yrotation Xrotation
									JOINT LeftHandIndex1
									{
										OFFSET 0.715260 -0.000000 -0.000000
										CHANNELS 3 Zrotation Yrotation Xrotation
										End Site
										{
											OFFSET 0.000000 0.000000 0.000000
										}
									}
								}
								JOINT LThumb
								{
									OFFSET 0.000000 0.000000 0.000000
									CHANNELS 3 Zrotation Yrotation Xrotation
									End Site
									{
										OFFSET 0.000000 0.000000 0.000000
									}
								}
							}
						}
					}
				}
				JOINT RightShoulder
				{
					OFFSET 0.000000 0.000000 0.000000
					CHANNELS 3 Zrotation Yrotation Xrotation
					JOINT RightArm
					{
						OFFSET -3.136600 1.374050 -0.404650
						CHANNELS 3 Zrotation Yrotation Xrotation
						JOINT RightForeArm
						{
							OFFSET -5.241900 -0.000000 -0.000000
							CHANNELS 3 Zrotation Yrotation Xrotation
							JOINT RightHand
							{
								OFFSET -3.444170 -0.000000 -0.000000
								CHANNELS 3 Zrotation Yrotation Xrotation
								JOINT RightFingerBase
								{
									OFFSET 0.000000 0.000000 0.000000
									CHANNELS 3 Zrotation Yrotation Xrotation
									JOINT RightHandIndex1
									{
										OFFSET -0.622530 -0.000000 -0.000000
										CHANNELS 3 Zrotation Yrotation Xrotation
										End Site
										{
											OFFSET 0.000000 0.000000 0.000000
										}
									}
								}
								JOINT RThumb
								{
									OFFSET 0.000000 0.000000 0.000000
									CHANNELS 3 Zrotation Yrotation Xrotation
									End Site
									{
										OFFSET 0.000000 0.000000 0.000000
									}
								}
							}
						}
					}
				}
			}
		}
	}
}
MOTION
Frames: 5
Frame Time: 0.008333
8.190457 16.232316 1.369758 19.311572 66.652111 19.290149 -9.761192 3.174208 -1.494212 -11.627066 15.530680 -7.338321 -2.197214 1.259779 34.675501 2.399299 11.764239 -21.234254 -3.373100 0.000000 -44.336700 11.102322 0.862721 -2.147580 4.008339 -18.466121 -41.522633 0.481108 -4.743268 62.758897 -3.544291 -14.109601 -26.467584 4.480701 0.000000 -10.035600 -4.777252 -4.121064 1.590233 -1.384706 -3.841572 -1.788557 -5.671751 -3.798497 3.477718 11.306874 -16.500914 -11.857586 -2.792045 -0.152713 -1.158038 0.000000 0.000000 0.000000 1.839497 19.474171 0.735996 -65.327317 -2.644284 -9.786633 -2.945918 -31.858656 -0.013737 16.445783 -2.792220 -0.419623 -0.181283 0.085113 0.000000 0.000000 0.000000 0.000000 0.000000 0.000000 0.000000 18.183357 -14.731953 0.048080 78.349878 -7.436357 -23.808895 3.126965 12.721719 0.003697 -8.867157 4.609411 -0.367600 0.147100 -0.056735 -0.000000 0.000000 0.000000 0.000000 0.000000 0.000000 0.000000 
8.417521 16.323277 1.475280 18.175996 66.376621 18.211587 -9.921423 3.341714 -1.281734 -10.683164 15.450572 -5.657039 -2.111406 1.188896 32.763269 2.259994 11.699959 -19.071438 -2.831400 -0.000000 -47.220800 10.812290 0.779536 -1.997624 5.568226 -18.196251 -41.724741 0.673709 -4.460676 60.081697 -3.565102 -13.929405 -25.757610 4.246500 0.000000 -11.868501 -4.188097 -4.330001 1.169007 -1.251659 -4.094489 -1.827263 -5.616504 -4.051960 3.575569 11.201808 -17.146422 -11.896931 -2.787060 -0.152297 -1.156833 0.000000 0.000000 0.000000 2.077520 19.528369 0.648232 -63.941742 -2.490555 -10.870244 -2.813118 -34.783713 -0.018508 16.733146 -2.534053 -0.390851 -0.191337 0.099457 0.000000 0.000000 0.000000 0.000000 0.000000 0.000000 0.000000 18.373238 -15.548583 -0.014076 78.689241 -9.411660 -22.611794 3.282585 12.673328 0.004593 -7.805724 4.038817 -0.283807 0.147046 -0.046813 -0.000000 0.000000 0.000000 0.000000 0.000000 0.000000 0.000000 
8.646960 16.421510 1.585085 16.935545 66.122750 17.017784 -10.104213 3.525000 -1.056645 -9.634655 15.337686 -4.019114 -1.999078 1.141647 30.891695 2.104841 11.604396 -16.546799 -2.210000 0.000001 -50.644900 10.507277 0.671833 -1.849437 7.182417 -17.890221 -41.649936 0.868222 -4.146734 57.101747 -3.611180 -13.871852 -25.007203 4.033000 0.000000 -13.924199 -3.552495 -4.544198 0.735149 -1.103304 -4.356628 -1.871174 -5.546656 -4.315726 3.667209 11.080174 -17.832781 -11.921671 -2.765697 -0.150826 -1.151076 0.000000 0.000000 0.000000 2.228886 19.619621 0.558770 -62.466189 -2.167647 -11.546678 -2.662951 -37.849409 -0.023824 16.933447 -2.078603 -0.329170 -0.201804 0.113162 0.000000 0.000000 0.000000 0.000000 0.000000 0.000000 0.000000 18.478927 -16.388574 -0.084676 78.901368 -11.421540 -21.183695 3.454957 12.835870 0.005327 -6.490853 3.536176 -0.206911 0.145219 -0.037249 -0.000000 0.000000 0.000000 0.000000 0.000000 0.000000 0.000000 
8.877463 16.525875 1.699178 15.608242 65.890057 15.718470 -10.303791 3.724432 -0.829472 -8.487039 15.214259 -2.439072 -1.861697 1.122224 29.095968 1.938477 11.456826 -13.659657 -1.520400 0.000000 -54.517400 10.192275 0.541832 -1.706211 8.830762 -17.562446 -41.277036 1.064015 -3.802273 53.805672 -3.680035 -13.926314 -24.215595 3.831100 0.000000 -16.194700 -2.885614 -4.760358 0.303934 -0.942886 -4.624038 -1.918656 -5.465540 -4.585669 3.750151 10.948577 -18.543149 -11.930720 -2.730991 -0.148549 -1.141055 0.000000 0.000000 0.000000 2.303066 19.737852 0.468266 -60.900858 -1.723918 -11.894115 -2.498816 -40.974787 -0.029502 17.072901 -1.509671 -0.247486 -0.212283 0.126251 0.000000 0.000000 0.000000 0.000000 0.000000 0.000000 0.000000 18.510779 -17.234658 -0.160188 78.997190 -13.440915 -19.659130 3.637493 13.156327 0.005782 -4.971993 3.102650 -0.139516 0.141471 -0.028195 -0.000000 0.000000 0.000000 0.000000 0.000000 0.000000 0.000000 
9.107767 16.634872 1.817559 14.217557 65.678007 14.331559 -10.513162 3.938890 -0.610598 -7.250221 15.101862 -0.933608 -1.702258 1.133218 27.412337 1.767130 11.230292 -10.419603 -0.784300 0.000000 -58.706200 9.872966 0.392690 -1.568723 10.489657 -17.222072 -40.592790 1.260410 -3.427381 50.185190 -3.767562 -14.077206 -23.379121 3.629900 0.000000 -18.597500 -2.206566 -4.975576 -0.112363 -0.774516 -4.892736 -1.967657 -5.375739 -4.857611 3.824636 10.813383 -19.266325 -11.925081 -2.684876 -0.145584 -1.127543 0.000000 0.000000 0.000000 2.319051 19.880538 0.376618 -59.258073 -1.213950 -11.987864 -2.325043 -44.083919 -0.035361 17.171167 -0.907879 -0.158898 -0.222415 0.138942 0.000000 0.000000 0.000000 0.000000 0.000000 0.000000 0.000000 18.478621 -18.077241 -0.237414 78.994351 -15.439809 -18.161946 3.824006 13.576057 0.005874 -3.315451 2.721497 -0.082322 0.135994 -0.019700 -0.000000 0.000000 0.000000 0.000000 0.000000 0.000000 0.000000 
